<svg xmlns="http://www.w3.org/2000/svg" viewBox="0 0 97.681 214.008">
  <defs>
    <style>
      .cls-1 {
        fill: #ff8000;
      }

      .cls-2 {
        fill: #85807d;
      }

      .cls-3 {
        fill: #79736e;
      }

      .cls-4 {
        fill: #4e484a;
      }

      .cls-5 {
        fill: #bcb9b3;
      }
    </style>
  </defs>
  <g id="Group_10" data-name="Group 10" transform="translate(-259.652 -50.586)">
    <g id="Group_11" data-name="Group 11">
      <path id="Path_18" data-name="Path 18" class="cls-1" d="M356.923,213.848a4.729,4.729,0,0,0-.6-1.152,1,1,0,0,0-.24-.251,1.474,1.474,0,0,0-.239.336l-1.09,1.693a3.965,3.965,0,0,1,1.018,1.788q0,1.009-1.5,1.009a1.575,1.575,0,0,1-1.5-.734,5.925,5.925,0,0,1-.372-1.372q-.156-.733-.552-.733-.455,0-.647.721a7.562,7.562,0,0,1-.431,1.347,1.566,1.566,0,0,1-1.462.721,1.494,1.494,0,0,1-1.437-.721,7.79,7.79,0,0,1-.383-1.347q-.168-.721-.611-.721-.407,0-.588.724a5.321,5.321,0,0,1-.431,1.341,1.655,1.655,0,0,1-1.521.725H316.508v3.067h27.54a3.147,3.147,0,0,0,2.911-1.652,2.785,2.785,0,0,0,2.467,1.652,2.7,2.7,0,0,0,2.348-1.652,2.831,2.831,0,0,0,2.456,1.652,2.625,2.625,0,0,0,2.418-1.62,6.345,6.345,0,0,0,.671-2.962,5.063,5.063,0,0,0-.4-1.859m-13.917,3.375H316.412q-1.9,0-1.9-1.7V205.438c0-.216-.024-.327-.071-.336l-.013-.012a1.591,1.591,0,0,0-.414.287l-1.958,1.607c-.071.072-.087.224-.048.455q.191,1.055.395,4.387.181,2.974.18,4.447a4.244,4.244,0,0,0,1.115,3.225,2.841,2.841,0,0,0,2.024.791h27.289Zm-35.02-12.348L306.36,206.5,308,208.116l1.608-1.61Zm.192,8.756q-1.63,0-1.629-.838a.794.794,0,0,1,.306-.63,1.042,1.042,0,0,1,.688-.257,1.8,1.8,0,0,1,.935.324,2.642,2.642,0,0,1,1.03,1.257,7,7,0,0,1-1.329.144m2.623-1.71q-.827-2.447-2.695-2.447a2.6,2.6,0,0,0-2.251,1.725,6.242,6.242,0,0,0-.732,2.874q0,1.761,2.384,1.761.623,0,2.145-.144.478-.048.478.278a.769.769,0,0,1-.431.748,9.675,9.675,0,0,1-3.821.495H277.519v3.078h28.047a7.63,7.63,0,0,0,4.18-.9q1.57-1.055,1.569-4.1a10.464,10.464,0,0,0-.514-3.369m-44.851-.564-1.466,1.466,1.466,1.464,1.464-1.464Zm3.27,0-1.466,1.466,1.463,1.467,1.481-1.464Zm8.923,5.855h-.719q-1.653,0-2.025-.926a6.208,6.208,0,0,0,.588-1.527q0-.588-.419-.589-.228,0-.743.563a8.31,8.31,0,0,1-1.03.994q-2.359,1.749-6.982,1.749a13.166,13.166,0,0,1-3.69-.383,2.254,2.254,0,0,1-1.844-2.228,3.323,3.323,0,0,1,.149-.814,3.34,3.34,0,0,0,.15-.8c0-.334-.153-.5-.455-.5q-.372,0-.887,1.018a5.051,5.051,0,0,0-.575,2.323q0,4.42,6.516,4.419a18.983,18.983,0,0,0,4.012-.347,9.207,9.207,0,0,0,4.085-2,3.055,3.055,0,0,0,.982,1.373,3.012,3.012,0,0,0,1.988.759h.9Z" transform="translate(0.003 44.089)"/>
      <path id="Path_19" data-name="Path 19" class="cls-2" d="M296.341,194.27l-6.775,6.775,6.775,6.775,6.773-6.775Zm-13.549,0-6.773,6.775,6.773,6.775,6.775-6.775Zm-13.552,0-6.775,6.775,6.775,6.775,6.775-6.775ZM306.5,181.3h3.388v-7.358l-3.388,3.388v.775a3.2,3.2,0,0,1-3.194,3.2Zm3.388,0H269.241v0h0l-9.579,9.579h40.891v-.013a9.574,9.574,0,0,0,9.341-9.567m23.712-7.358,6.775-6.773L333.6,160.4l-6.775,6.775Zm16.939,0,6.775-6.773-6.775-6.775-6.775,6.775Zm6.776,17.624h0V190.4c0-.433-.015-.885-.036-1.341-.215-5.269-1.806-11.767-7.95-11.73-.037,0-.069.009-.105.009s-.085-.009-.13-.009a3.945,3.945,0,0,0-.814.087c-5.516.869-6.9,8.566-7.1,13.039-.09,2,.522,2.971,2.919,3.54a23.321,23.321,0,0,0,2.5.252l.2.009.114.005c1,.037,2.205.014,4.044.009v0h1.275a1.694,1.694,0,0,1,1.695,1.695v.584a1.693,1.693,0,0,1-1.695,1.692H336.8a3.194,3.194,0,0,1-3.194-3.194v-4.163l-3.388,3.387v.777a3.194,3.194,0,0,1-3.2,3.194h-3.774a3.194,3.194,0,0,1-3.194-3.194V163.682l-6.775,7.019v27.663h.005a9.576,9.576,0,0,0,9.529,9.455h5.978v-.006a3.187,3.187,0,0,0,3.121-3.158h.005a3.188,3.188,0,0,0,3.122,3.158v.006h12.99v-.013a9.567,9.567,0,0,0,9.27-9.189l.019,0v-7.047" transform="translate(0.003 31.379)"/>
    </g>
    <g id="Group_9" data-name="Group 9" transform="translate(259.652 50.586)">
      <path id="Path_20" data-name="Path 20" class="cls-3" d="M326.733,116.247l-2.8,2.809.109.109-12.8,12.788c-23.033,20.424-48.7,2.392-51.266-15.66,8.582,10.3,17.967,11.412,29.512-.158l2.8-2.811-.108-.108,12.8-12.789c23.034-20.424,48.7-2.39,51.267,15.661-8.582-10.3-17.968-11.412-29.512.159" transform="translate(-259.56 -38.931)"/>
      <path id="Path_21" data-name="Path 21" class="cls-1" d="M289.48,72.911,268.472,94.37c-7.992,9.328-9.948,18.975-8.261,27.37,4.341,5.155,8.888,7.956,13.819,7.956a13.219,13.219,0,0,0,1.385-.073,14.957,14.957,0,0,1,4.714-9.99l28.071-28Zm-16.653,68.018a27.236,27.236,0,0,0,11.213,4.8,30.349,30.349,0,0,1-11.213-4.8" transform="translate(-259.652 -44.206)"/>
      <path id="Path_22" data-name="Path 22" class="cls-4" d="M260.087,110.888A31.6,31.6,0,0,0,272.7,130.077a30.371,30.371,0,0,0,11.213,4.8,21.542,21.542,0,0,0,3.348.3c-6.422-1.75-12.33-8.829-11.973-16.406a13.219,13.219,0,0,1-1.385.073c-4.931,0-9.479-2.8-13.819-7.956" transform="translate(-259.528 -33.354)"/>
      <rect id="Rectangle_4" data-name="Rectangle 4" class="cls-1" width="20.315" height="20.315" transform="matrix(0.707, -0.707, 0.707, 0.707, 15.452, 14.365)"/>
      <path id="Path_23" data-name="Path 23" class="cls-5" d="M324.911,92.52c10.9,3.635,19.111,13.435,20.505,23.241-4.383-5.264-8.977-8.129-13.962-8.129-.262,0-.527.009-.793.024a14.9,14.9,0,0,1-4.724,10.292l-28.071,28,18.719,18.719,21.007-21.461c18.809-21.953,4.19-45.667-12.681-50.692" transform="translate(-248.732 -38.603)"/>
      <path id="Path_24" data-name="Path 24" class="cls-4" d="M314.052,91.768c6.336,1.727,12.174,8.642,11.983,16.1.265-.015.531-.023.795-.023,4.984,0,9.578,2.863,13.962,8.127-1.4-9.806-9.6-19.606-20.507-23.241a22.594,22.594,0,0,0-6.233-.967" transform="translate(-244.107 -38.818)"/>
    </g>
  </g>
</svg>
