<svg xmlns="http://www.w3.org/2000/svg" viewBox="0 0 1921 1081">
  <defs>
    <style>
      .cls-1 {
        fill: #fff;
      }
    </style>
  </defs>
  <path id="Intersection_1" data-name="Intersection 1" class="cls-1" d="M1493.154,1884.008c2.09-14.885,2-30.454,1.911-45.652-.063-10.975-.123-21.339.63-31.069a4.774,4.774,0,0,1,.274-.859,1.407,1.407,0,0,1,1.021-.947,2.925,2.925,0,0,1,1.7.5c.106.058.213.116.318.175a2.969,2.969,0,0,0,1.555.563.687.687,0,0,0,.525-.456,4.263,4.263,0,0,0,.213-1.691,452.72,452.72,0,0,1,7.15-55.23c3.956-20.912,8.969-40.26,14.5-55.95a3.689,3.689,0,0,1,.363,4.363c-.6,1.4-1.164,2.716,1.664,4.762.366-.661.714-1.357,1.03-2.066a35.859,35.859,0,0,0,2.776-12.15,116.989,116.989,0,0,0-.038-12.922l-.014-.326v-.012a120.53,120.53,0,0,1-.077-12.6,33.641,33.641,0,0,1,2.578-11.572c.3-.666.625-1.322.977-1.949a12.508,12.508,0,0,1-.25,1.8c-.309,1.648-.628,3.352.992,4.149a2.978,2.978,0,0,0,1.581-1.539,6.512,6.512,0,0,0,.316-3.01l-.019-.276-.005-.08a5.046,5.046,0,0,1,.108-2.133c.32-.718,1.186-.768,2.808-.159-1.313,3.789-.86,6.826-.422,9.763.08.535.162,1.088.233,1.639-1.906,9.052-2.025,12.49-1.5,12.689.211.079.537-.348.919-1.206a48.071,48.071,0,0,0,2.978-15.07c.416-10.365,1.824-23.607,4.531-29.686a11.528,11.528,0,0,1,.931-1.727c1.691.772,1.508,2.414,1.33,4-.143,1.281-.291,2.6.545,3.464a3.478,3.478,0,0,0,1.983.882l0-.049c.684-10.161,1.623-24.078,3.806-39.1,1.189-8.18,2.635-15.839,4.3-22.765a156.55,156.55,0,0,1,6.849-21.9c2.768,9.61-.1,22.339-3.134,35.815-1.885,8.373-3.835,17.026-4.486,25.275a58.324,58.324,0,0,0,.162,12.005,35.254,35.254,0,0,0,3.113,10.958,1.967,1.967,0,0,0,.207-.356c.486-1.092-.137-2.424-.883-3.7-.117-.2-.237-.4-.359-.6-.587-.974-1.094-1.814-.885-2.285.142-.32.616-.449,1.447-.394,5.96,5.823,3.6,14.88,1.709,22.157l0,.007a45.286,45.286,0,0,0-1.408,6.62c-1.03,11.087-1.714,21.515-2.378,31.6v.011c-1.316,20-2.677,40.69-6.767,67.866a214.544,214.544,0,0,0,6.158-23.182c1.607-7.6,3.008-15.779,4.283-25.008,2.369-17.145,3.931-35.423,5.443-53.1v-.007c1.772-20.718,3.6-42.142,6.749-61.993a290.007,290.007,0,0,1,5.89-28.681,168.777,168.777,0,0,1,8.9-25.861c.535-1.2,1.093-2.406,1.659-3.578a.405.405,0,0,1-.374.027c-.248-.113-.443-.494-.578-1.133-1.006-1.7-.247-3.942.554-6.314a16.832,16.832,0,0,0,1.179-5.183,5.832,5.832,0,0,0-2.407-4.8c3.761-4.151,6.955-10.422,8.972-14.953a103.426,103.426,0,0,0,4.881-13.271c7.862-27.891,12.161-59.751,16.318-90.562,2.481-18.387,5.046-37.4,8.332-55.209,1.769-9.585,3.6-18.078,5.6-25.965a244.215,244.215,0,0,1,7.331-24.073c7.343-20.222,14.6-38.322,22.17-55.335,2.149-4.827,4.356-9.634,6.558-14.287a92.233,92.233,0,0,1-2.961,21.278c-1.675,6.63-3.9,13.018-6.057,19.2-3.972,11.391-8.079,23.171-8.877,36.916a28.558,28.558,0,0,0,4.245-6.935c2.375-5.333,3.633-11.487,4.85-17.437l.032-.156c1.2-5.874,2.443-11.948,4.7-17.017a27.159,27.159,0,0,1,3.271-5.6c.834,5.791-1.056,11.466-2.884,16.954a55.07,55.07,0,0,0-3.046,12.132,21.563,21.563,0,0,0,2.684,12.864c.442-.847.877-1.75,1.293-2.681,2.789-6.265,4.23-12.83,5.467-19.016q.2-.981.386-1.945l0-.007a96.656,96.656,0,0,1,2.693-11.372,8.573,8.573,0,0,0,2.112,1.587c11.208-36.472,21.328-69.119,31.669-99.318,11.368-33.2,22.181-61.052,34.028-87.664,7.39-16.6,15.12-32.584,23.635-48.873,8.87-16.972,18.356-33.827,29-51.525a60.862,60.862,0,0,0,24.82-28.309c.925-2.079,1.761-4.236,2.486-6.412-15.665,12.382-25.8,27.122-35.6,41.377-8.446,12.286-16.423,23.891-27.312,33.074-5.089,4.3-9.268,10.5-13.55,20.12-1.742,3.914-3.369,8.073-4.942,12.1l0,.005-.01.024c-1.571,4.018-3.2,8.173-4.938,12.086-4.418,9.923-8.76,16.276-14.076,20.6a8.223,8.223,0,0,1,.754-2.513c.347-.78.78-1.59,1.2-2.372l.009-.017c.423-.791.859-1.607,1.209-2.391.721-1.618,1.358-3.676-.124-5.226a8.27,8.27,0,0,0-.5.994l-.012.026-.012.027-.058.131c-.544,1.22-1.07,2.12-2.462,1.693,2.714-7.49,4.424-14.1,5.933-19.924,1.619-6.256,3.018-11.658,5.215-16.593a39.1,39.1,0,0,1,13.448-16.365,76.505,76.505,0,0,1-2.812,7.167c-.813,1.824-1.646,3.566-2.382,5.1l-.018.037-.079.167c-.77,1.606-1.5,3.123-2.173,4.64a40.58,40.58,0,0,0-2.7,7.68,20.964,20.964,0,0,0-.329,7.9c.637-1.147,1.264-2.413,1.912-3.868,1.6-3.6,3-7.592,4.471-11.814l.076-.217,0-.006c1.382-3.953,2.947-8.434,4.733-12.446,2.9-6.509,5.929-10.8,9.541-13.493.437,1.293-.073,2.78-.566,4.217-.625,1.82-1.271,3.7.009,5.2,1.283-2.482,2.291-4.557,3.169-6.529a50.554,50.554,0,0,0,4.135-13.2,27.735,27.735,0,0,0-1.11-13.421,90.125,90.125,0,0,0-7.39,13.37c-2.756,5.807-5.358,11.288-11.188,16.915,1.03-4.837,3.282-11.119,6.881-19.2,2.327-5.226,4.9-10.515,7.546-15.925l.481-.982c2.322-4.739,4.514-9.216,6.2-12.991.916-2.059,1.615-3.759,2.133-5.2-.6,1.922-.734,3.139-.446,3.947.274.761.906,1.132,1.708,1.6a8.926,8.926,0,0,1,3.655,3.531,7.059,7.059,0,0,1,.445-1.282,25.741,25.741,0,0,1,2.247-3.727l0-.006a25.9,25.9,0,0,0,2.256-3.738c.773-1.739.757-3.077-.051-4.213a20.414,20.414,0,0,0-1.231,2.365l0,0a11.037,11.037,0,0,1-2.187,3.527c-1.031.918-2.308,1.019-3.9.309-.038-.559-.045-1.132-.052-1.687v-.01c-.027-2.117-.055-4.306-1.743-6.206,4.111-5.888,8.595-12.734,13.343-19.982l.013-.018c7.871-12.019,16.794-25.641,25.869-37.637,10.408-13.757,19.443-23.294,27.621-29.156,1.367,3.037,1.239,6.29-.389,9.947a31.4,31.4,0,0,1-4.743,7.232c2.66.578,5.878-.292,9.058-2.45a18.661,18.661,0,0,0,6.376-7.175,5.17,5.17,0,0,0,.311-4.423c-1.755,3.1-3.964,6.33-7.936,5.54-1.673-3.531-1.608-7.215.194-11.265,1.836-4.124,5.095-7.941,8.852-12.146l.573-.642c3.231-3.611,6.282-7.021,7.708-10.226a7,7,0,0,0,.232-6.16h.15c1.946,0,7.114-.011,7.978-1.952a2.381,2.381,0,0,0-.571-2.325,8.675,8.675,0,0,0-.789.889c-.766.946-1.556,1.922-2.984,1.248,8.091-10.017,15.8-18.6,23.261-26.9l.01-.011,1.368-1.523H1921.5v1081Zm96.493-351.839a1.877,1.877,0,0,0,.668-.882,4.061,4.061,0,0,0,.313-1.108C1590.31,1530.811,1589.979,1531.481,1589.648,1532.169Zm-109.732,351.839a29.805,29.805,0,0,1,1.966-7.943,12.217,12.217,0,0,1,1.309-2.286,10.262,10.262,0,0,1,6.487,7.676,15.882,15.882,0,0,1,.3,2.552Zm-37.876,0c.769-11.761,1.348-23.96,1.941-36.462v-.006c1.026-21.616,2.087-43.968,4.274-64.66,1.178-11.152,2.578-20.894,4.276-29.781a191.229,191.229,0,0,1,6.83-26.444,15.855,15.855,0,0,0,1.567,8.082,44.008,44.008,0,0,0,4.283,6.82l.009.013c.691.965,1.406,1.962,2.068,2.962a65.34,65.34,0,0,1-.88,7.489c-.877,5.459-1.457,9.065,3.267,13.044a53.007,53.007,0,0,1,1.522-15.216,141.207,141.207,0,0,1,4.256-13.847l0-.011c2.164-6.255,4.208-12.164,4.623-17.784,2.627,47.615,2.124,100.558-1.6,165.8Zm-215.138,0q.322-.915.648-1.846l.006-.015.212-.606c1.6-4.554,3.075-8.674,4.993-12.982,1.153-2.588,2.336-4.955,3.62-7.234a108.9,108.9,0,0,1,8.16-12.134l0-.006c3.359-4.549,6.531-8.844,8.354-12.937a19.027,19.027,0,0,0,1.24-3.654c1.109-5.5.569-12.04,0-18.959-.754-9.127-1.534-18.564,1.679-25.78a18.225,18.225,0,0,1,8.83-9.137c4.891,4.891,7.078,11.364,9.194,17.624,1.69,5,3.436,10.16,6.543,14.466a17.361,17.361,0,0,0,6.735-4.667,25.492,25.492,0,0,0,4.2-6.759,86.41,86.41,0,0,0,3.19-8.921l0-.008a86.421,86.421,0,0,1,3.2-8.95,25.568,25.568,0,0,1,4.431-7.041,17.832,17.832,0,0,1,7.232-4.78c-.985-1.543-.183-4.531.745-7.99.89-3.317,1.9-7.076,1.577-10.442.731-1.476,1.448-3,2.131-4.537,10.742-24.129,14.165-52.2,17.474-79.349,1.79-14.68,3.48-28.541,6.244-41.9,1.272-1.387,3.562-1.649,7.209-.825.727-5.9,1.165-12.382,1.627-19.245v-.015c.587-8.708,1.194-17.714,2.459-26.418,1.435-9.874,3.519-17.789,6.372-24.2a50.9,50.9,0,0,1,2.524-4.945,34.5,34.5,0,0,1,2.51,9.3,46.259,46.259,0,0,1,.176,9.514c-.489,6.405-2.055,13.074-3.569,19.525l0,.005c-1,4.244-2.026,8.631-2.766,12.98-2.132,12.427-4.549,24.763-6.885,36.691l-.005.026c-6.376,32.547-12.4,63.287-11,87.874,9.635-32.4,13.6-59.98,17.808-89.179,1.637-11.374,3.329-23.133,5.4-35.316,2.339-1.106,4.214-3.3,5.732-6.711,2.529-5.68,3.673-13.784,4.884-22.364.38-2.693.773-5.477,1.213-8.182,2.683.2,3.284,1.377,3.865,2.511a3.7,3.7,0,0,0,2.4,2.255,26.683,26.683,0,0,0,5.295-8.014c2.7-6.061,3.858-13.229,4.882-19.553l.1-.619c1.068-6.613,2.077-12.86,4.323-17.9a19.213,19.213,0,0,1,4.372-6.4,15.413,15.413,0,0,1,7.069-3.726c2.218,24.071-2.079,49.557-6.234,74.2-2.714,16.1-5.276,31.3-5.99,45.6a4.347,4.347,0,0,0,2.577.706,1.509,1.509,0,0,0,1.156-.976,10.329,10.329,0,0,0,.456-3.5,10.327,10.327,0,0,1,.456-3.5,1.621,1.621,0,0,1,2.09-.922c3.639,18.251.474,34.54-2.586,50.294-2.635,13.562-5.125,26.372-2.988,39.275.733,4.336,3.178,8.906,5.542,13.326,1.992,3.722,4.051,7.57,5.04,11.217,2.9,10.815,3.495,21.676,4.073,32.179.54,9.818,1.1,19.971,3.534,30.064,1.027,4.215,3.688,8.334,6.506,12.694,2.506,3.878,5.1,7.887,6.473,12.013,2.945,8.924,2.993,18.545,3.037,27.851.05,10.128.1,19.693,3.821,27.541q-.056,1.749-.088,3.412Zm-38.9,0q1-6.85,1.879-14.065c2.227-18.243,3.719-36.6,5.161-54.347.8-9.793,1.618-19.919,2.557-29.923,3.61,1.96,5.041.317,6.191-1,.635-.728,1.182-1.357,1.963-1.245.651.094,1.4.685,2.35,1.862-.25.948-.517,1.887-.8,2.882-1.941,6.859-4.143,14.632.252,21.143a4.732,4.732,0,0,1,.364-1.668c.536-1.2,1.655-1.838,3.424-1.944a148.12,148.12,0,0,1,2.855,21.283c.447,6.808.538,14,.279,22-.374,11.506-1.451,23.345-2.66,35.025Zm-1187.5,0v-1081H1216.71a48.045,48.045,0,0,0,.451,7.7c.294-1.08.527-2.275.753-3.431l0-.013a37.965,37.965,0,0,1,1-4.26H1222c-.078,7.739-1.2,16.815-2.375,26.341-1.252,10.14-2.546,20.626-2.734,30.582a.774.774,0,0,0,.064.837,4.432,4.432,0,0,0,2.356.822,4.429,4.429,0,0,1,2.362.824.775.775,0,0,1,.065.84,17.28,17.28,0,0,1,1.214,9.693,45.388,45.388,0,0,1-2.665,9,47.192,47.192,0,0,0-2.587,8.554c-.786,4.538-.618,9.408-.441,14.564a88.341,88.341,0,0,1-.226,13.6c-2.261,19.608-5.515,39.059-8.662,57.87l0,.008c-1.854,11.084-3.605,21.552-5.088,31.639a6.454,6.454,0,0,0-.682-.309c-.653-.266-1.326-.542-1.237-1.157a1.107,1.107,0,0,0-1.2.609,2.007,2.007,0,0,0-.143.795c-.449,7.016-2.332,13.6-4.153,19.966l0,.008a134.142,134.142,0,0,0-3.323,13.346,50.227,50.227,0,0,0-.631,14.274,3.092,3.092,0,0,1-1.641.75c-.763.187-1.552.38-1.89,1.14a2.135,2.135,0,0,0-.167.7c2.219,5.489.551,10.592-1.062,15.527-1.487,4.549-2.891,8.846-1.25,13.184a302.234,302.234,0,0,0-8.557,45.908c-1.859,15.891-3.019,32.9-4.248,50.906l0,.049q-.624,9.13-1.316,18.86l-.023.05a4.721,4.721,0,0,0-.085,2.744c.14.576.341.959.526,1,.1.023.191-.052.267-.226a4.711,4.711,0,0,0,.244-1.459c.4-2.824.514-6.073.626-9.216.2-5.485.4-11.158,2.087-14.95.087-.2.18-.391.275-.577l.14.372c2.551,6.754,5.188,13.739,5.54,21.651.383,13.056-.3,27.115-1.014,42v.005c-.678,14.037-1.379,28.552-1.252,43.468a278.283,278.283,0,0,0,3.739,45.439,12.679,12.679,0,0,1,1.026-3.725,24.882,24.882,0,0,1,2.321-3.9c.119-.175.238-.349.356-.524-2.564-12.975-2.8-25.057-3.028-36.742-.211-10.842-.429-22.052-2.477-34.12,5.535-23,7.37-45.6,9.146-67.45l.005-.061c.488-6.013.994-12.23,1.569-18.351,2.22,1.206,3.1.2,3.808-.617.39-.448.727-.834,1.207-.766.4.058.859.422,1.445,1.146-.15.57-.311,1.139-.482,1.741l-.009.031c-1.193,4.218-2.547,9,.155,13a2.922,2.922,0,0,1,.224-1.025,2.2,2.2,0,0,1,2.106-1.2,110.662,110.662,0,0,1,1.927,26.621c-.3,9.126-1.311,18.6-2.293,27.753l0,.023c-1.409,13.135-2.867,26.717-2.213,39.447.256.511.47.783.635.808.1.014.177-.054.243-.2a15.676,15.676,0,0,0,.218-4.108c-.014-.836-.026-1.556.01-1.943-.116-5.405,1.318-9.758,2.7-13.966,1.508-4.579,2.931-8.9,2.187-14.1a24.876,24.876,0,0,0,3.937-6.427c.956-2.145,1.761-4.443,2.615-6.877l0-.008.133-.38c.984-2.8,1.894-5.34,3.072-7.985.71-1.595,1.439-3.05,2.227-4.45a67.025,67.025,0,0,1,5.018-7.465,46.525,46.525,0,0,0,5.14-7.959,11.779,11.779,0,0,0,.764-2.247c.681-3.385.349-7.405,0-11.66-.463-5.614-.942-11.419,1.033-15.856a11.213,11.213,0,0,1,5.432-5.62c3.007,3.007,4.353,6.987,5.654,10.836.222.655.451,1.333.687,2-1.466,11.121-1.615,19.944-.467,27.766.481-1.764.861-3.714,1.229-5.6a43.44,43.44,0,0,1,2.349-8.852c1.049-2.357,2.423-3.794,4.2-4.395.593,13.824-1.525,30.983-3.766,49.15-2.036,16.492-4.14,33.542-4.447,49.724a1.258,1.258,0,0,0,.1,1.36c.607.753,2.247,1.049,3.833,1.337s3.231.585,3.838,1.339a1.26,1.26,0,0,1,.105,1.366,27.522,27.522,0,0,1,2.171,8.088,29.7,29.7,0,0,1-.2,7.673c-.745,5.008-2.569,9.9-4.333,14.635a76.779,76.779,0,0,0-4.207,13.9c-1.277,7.38-1,15.3-.715,23.678.253,7.341.515,14.931-.366,22.112-3.677,31.9-8.969,63.527-14.087,94.117l-.005.027c-3.012,18.007-5.857,35.015-8.266,51.4a10.228,10.228,0,0,0-1.11-.5c-1.059-.432-2.155-.878-2.01-1.88a1.8,1.8,0,0,0-1.951.989,3.288,3.288,0,0,0-.234,1.3c-.73,11.4-3.79,22.108-6.749,32.457a218.47,218.47,0,0,0-5.408,21.716,81.682,81.682,0,0,0-1.024,23.21,5.028,5.028,0,0,1-2.668,1.218c-1.242.3-2.524.617-3.075,1.854a3.488,3.488,0,0,0-.27,1.133c3.607,8.925.9,17.222-1.726,25.246-2.417,7.4-4.7,14.383-2.031,21.437-6.145,22.311-10.567,46.028-13.915,74.638-3.023,25.837-4.909,53.491-6.906,82.768q-1.013,14.845-2.144,30.747c-.014.027-.025.054-.038.081a7.692,7.692,0,0,0-.137,4.461c.229.935.556,1.56.855,1.629.163.038.309-.086.434-.366a7.682,7.682,0,0,0,.4-2.374c.648-4.588.837-9.871,1.021-14.981v-.011c.319-8.916.649-18.137,3.393-24.3.142-.32.292-.635.446-.935l.232.615c4.144,10.98,8.428,22.333,9.005,35.191.4,13.718.084,28.117-.508,43.118Zm1675.243-629.784c-.056.167-.118.325-.182.468a5.314,5.314,0,0,1-.539.939C1675.254,1255.126,1675.5,1254.652,1675.743,1254.224Zm-5.585-33.043a29.729,29.729,0,0,1,1.883-3.368l.094-.153a33.118,33.118,0,0,0,2.1-3.8,11.858,11.858,0,0,0,1.139-5.464,10.973,10.973,0,0,0-5.012,5.755,26.839,26.839,0,0,0-1.476,4.423c-2.035-5.292.942-11.979,3.821-18.445l.006-.013c2.483-5.577,5.051-11.344,4.275-16.059a3.753,3.753,0,0,0,2.29.635c.916-.144,1.347-.955,1.777-1.922a5.115,5.115,0,0,1,1,1.6,4.117,4.117,0,0,0,3.254,2.739,13.85,13.85,0,0,0-2.5,3.914c-1.51,3.392-2.308,7.727-3.154,12.316v.007q-.092.5-.185,1c-.974,5.258-2.021,10.365-4.1,15.043a26.949,26.949,0,0,1-5.236,7.942A6.61,6.61,0,0,1,1670.158,1221.181Zm82.427-187.672c-.239-.172-.165-.744.2-1.571a24.839,24.839,0,0,1,2.979-4.573.4.4,0,0,0,.048-.081c.13-.293-.055-.781-.27-1.346l-.026-.068c-.024-.064-.049-.128-.072-.192a2.728,2.728,0,0,1-.212-1.959,1.294,1.294,0,0,1,.442-.526,10,10,0,0,1-.264,7.354h0a6.2,6.2,0,0,1-2.3,2.919.8.8,0,0,1-.342.1A.308.308,0,0,1,1752.584,1033.51Zm19.6-99.5a5.61,5.61,0,0,1,3.113-3.143.87.87,0,0,1,.787.112c.411.348.328,1.236-.235,2.5h0a28.738,28.738,0,0,1-3.714,5.648A6.326,6.326,0,0,1,1772.189,934.007Zm6.035-5.955a21.972,21.972,0,0,1-3.844-2.885c-1.065-1.128-1.347-2.2-.865-3.288a4.675,4.675,0,0,1,1-1.373,7.084,7.084,0,0,1,2.773,1.416.245.245,0,0,1,.032.244c-.1.214-.527.351-.985.5l-.036.012c-.434.137-.926.293-1.036.54-.124.279.257.643,1.165,1.111,12.073-12.652,19.2-27.486,26.09-41.832,4.2-8.749,8.172-17.012,13.124-24.6,3.547-5.511,8.26-10.514,12.819-15.353,6.028-6.4,11.72-12.441,14.856-19.486.4-.887.745-1.783,1.04-2.663,1-.945,2.434-.815,3.823-.689,1.76.159,3.582.325,4.513-1.7,1.025-1.588,1.978-3.443,2.988-5.408a46.616,46.616,0,0,1,5.949-9.587h5.106a28.955,28.955,0,0,1-2.362,2.6,16.006,16.006,0,0,0-3.227,4.006c-.023.053-.046.105-.067.158,4.571-1.359,6.461-3.74,8.322-6.764h2.169a51.3,51.3,0,0,1-7.224,10.526,133.55,133.55,0,0,1-10.273,10.3l-1.093,1.01c-6.664,6.158-12.958,11.974-16.061,18.945a22.324,22.324,0,0,0-1.946,7.672c-4.837-1.459-7.529,2.254-10.134,5.844-.751,1.035-1.523,2.1-2.33,3.014-.307.98.582,1.881,1.444,2.752.909.922,1.848,1.872,1.381,2.92a2.909,2.909,0,0,1-1.014,1.113,5.144,5.144,0,0,1-1.466-2.229,5.017,5.017,0,0,0-1.747-2.457,4.726,4.726,0,0,0-1.409,1.639,1.751,1.751,0,0,0,.125,1.742c.536.843,1.813,1.636,3.8,2.356-14.179,13.576-27.7,33.782-38.561,50.018l-.009.013c-2.359,3.526-4.587,6.856-6.7,9.946Zm-21.9-10.19c-.275-.236-.256-.752.057-1.454a9.109,9.109,0,0,1,1.108-1.761c1.985-2.828,3.33-5.052,4.516-7.014a45.073,45.073,0,0,1,7.383-9.821,1.181,1.181,0,0,0,.3-.383c.258-.58-.423-1.059-1.207-1.54a2.521,2.521,0,0,1,1.694.774c.724.855.606,2.378-.35,4.525a47.409,47.409,0,0,1-10.128,13.15,6.012,6.012,0,0,1-.4,1.29,3.99,3.99,0,0,1-2.319,2.332,1.117,1.117,0,0,1-.251.031A.593.593,0,0,1,1756.327,917.862Zm26.63-44.481c.882-1.98,2.79-3.938,4.81-6.011l.458-.471c2.318-2.384,4.5-4.751,5.726-7.507a11.941,11.941,0,0,0,.593-1.639c.827,1.562.7,3.514-.4,5.967a47.767,47.767,0,0,1-4.518,7.286l0,.006-.01.013a47.7,47.7,0,0,0-4.5,7.25,12.809,12.809,0,0,0-.6,1.6C1782.426,877.753,1781.929,875.689,1782.957,873.382ZM1781,865.35c8.4-14.627,17.919-31.2,31.495-43.015a6.992,6.992,0,0,1-.647,2.99c-1.063,2.386-3.3,4.558-5.679,6.856l-.087.086-.431.419c-2.712,2.633-5.267,5.268-6.723,8.54-.168.376-.319.76-.452,1.14,5.227-3.7,9.885-9.389,13.627-13.963,3.436-4.2,6.151-7.519,7.907-7.6a2.42,2.42,0,0,1-1.34-.9c-.53-.779-.457-1.943.217-3.458a24.381,24.381,0,0,1,4.73-6.422,26.287,26.287,0,0,1,5.631-4.6,1.107,1.107,0,0,0,.078-.145.588.588,0,0,0-.03-.589,4.533,4.533,0,0,0-2.019-1.1l-.047-.018c-.2-.075-.4-.153-.606-.233-.254-.1-.514-.211-.764-.331h11.183q-1.609,1.756-3.171,3.659a179.868,179.868,0,0,0-12.554,18.029l0,.006c-5.557,8.735-10.8,16.98-18.112,23.269a54.248,54.248,0,0,1-7.561,5.243c-5.292,3.269-11.291,6.974-15.193,13.1Zm-127.228-37.9c3.675-8.254,7.721-16.384,12.064-24.447h7.973c-6.135,10.981-12.635,22.195-22.925,31.148C1651.815,831.914,1652.788,829.66,1653.77,827.455Z" transform="translate(-0.5 -803.008)"/>
</svg>
