<svg xmlns="http://www.w3.org/2000/svg" viewBox="0 0 630 630">
  <defs>
    <style>
      .cls-1 {
        fill: none;
      }

      .cls-2 {
        fill: #c4c8ca;
      }

      .cls-3 {
        fill: #d0d3d5;
      }

      .cls-4 {
        fill: #646464;
      }

      .cls-5 {
        fill: #9bcdc6;
      }

      .cls-6 {
        fill: #3db39e;
      }

      .cls-7 {
        fill: #b5b5b5;
      }

      .cls-8 {
        fill: #cfcfcf;
      }

      .cls-9 {
        fill: #a4a4a4;
      }
    </style>
  </defs>
  <g id="Group_1" data-name="Group 1" transform="translate(-38 -453)">
    <rect id="Rectangle_1" data-name="Rectangle 1" class="cls-1" width="630" height="630" transform="translate(38 453)"/>
    <g id="database_logo" transform="translate(101.644 516)">
      <path id="Path_1" data-name="Path 1" class="cls-2" d="M490.142,114.215v-1.969l-169.748,1.969H25.47v27.254H13.588v316.18c0,25.6,43.323,46.08,96.886,46.08H378.683c61.834,0,111.852-24.025,111.852-53.169V114.609A.386.386,0,0,1,490.142,114.215Z"/>
      <path id="Path_2" data-name="Path 2" class="cls-3" d="M76.6,129.969H13.588v327.68c0,19.692,26.388,36.628,63.015,43.323Zm413.539-11.815H427.127V498.609c37.415-8.665,63.015-26.782,63.015-48.049V118.154Z"/>
      <path id="Path_3" data-name="Path 3" class="cls-4" d="M378.289,397.784H110.08c-53.563,0-96.886-20.874-96.886-46.08V458.042c0,25.6,43.323,46.08,96.886,46.08H378.289c61.834,0,111.852-24.025,111.852-53.169V344.614C490.142,373.759,440.123,397.784,378.289,397.784ZM490.142,226.462c0,29.538-52.382,53.169-116.578,53.169H106.142c-51.2,0-92.554-20.48-92.554-46.08V339.889c0,25.6,43.323,46.08,96.886,46.08H378.683c61.834,0,111.852-24.025,111.852-53.169V208.738C490.142,215.04,490.142,220.948,490.142,226.462Zm-384,41.353H373.564c64.591,0,116.578-23.631,116.578-53.169V114.215H24.76v23.134H13.588v84.386C13.588,247.335,54.942,267.815,106.142,267.815Z" transform="translate(0 0.001)"/>
      <path id="Path_4" data-name="Path 4" class="cls-5" d="M277.465,232.369a11.815,11.815,0,1,0-11.815-11.815A11.6,11.6,0,0,0,277.465,232.369Zm0,94.523a11.815,11.815,0,1,0,11.815,11.815A11.6,11.6,0,0,0,277.465,326.892Zm0,118.154a11.815,11.815,0,1,0,11.815,11.815A11.849,11.849,0,0,0,277.465,445.046Z"/>
      <path id="Path_5" data-name="Path 5" class="cls-6" d="M316.849,208.738a11.815,11.815,0,1,0,11.815,11.815A11.6,11.6,0,0,0,316.849,208.738Zm39.385,23.631a11.815,11.815,0,1,0-11.815-11.815A11.6,11.6,0,0,0,356.234,232.369Zm-39.385,94.523a11.815,11.815,0,1,0,11.815,11.815A11.6,11.6,0,0,0,316.849,326.892Zm39.385,0a11.815,11.815,0,1,0,11.815,11.815A11.6,11.6,0,0,0,356.234,326.892ZM316.849,445.046a11.815,11.815,0,1,0,11.815,11.815A11.848,11.848,0,0,0,316.849,445.046Zm39.385,0a11.815,11.815,0,1,0,11.815,11.815A11.849,11.849,0,0,0,356.234,445.046Z"/>
      <path id="Path_6" data-name="Path 6" class="cls-2" d="M214.449,192.985h-102.4a3.72,3.72,0,0,0-3.938,3.938v11.815a3.72,3.72,0,0,0,3.938,3.938h102.4a3.72,3.72,0,0,0,3.938-3.938V196.923A3.945,3.945,0,0,0,214.449,192.985Zm0,31.507h-102.4a3.72,3.72,0,0,0-3.938,3.938v11.815a3.72,3.72,0,0,0,3.938,3.938h102.4a3.72,3.72,0,0,0,3.938-3.938V228.43A3.946,3.946,0,0,0,214.449,224.492Zm0,86.646h-102.4a3.72,3.72,0,0,0-3.938,3.938v11.815a3.72,3.72,0,0,0,3.938,3.938h102.4a3.72,3.72,0,0,0,3.938-3.938V315.076A3.946,3.946,0,0,0,214.449,311.138Zm0,31.508h-102.4a3.72,3.72,0,0,0-3.938,3.938V358.4a3.72,3.72,0,0,0,3.938,3.938h102.4a3.72,3.72,0,0,0,3.938-3.938V346.585A3.946,3.946,0,0,0,214.449,342.646Zm0,86.646h-102.4a3.72,3.72,0,0,0-3.938,3.938v11.815a3.72,3.72,0,0,0,3.938,3.938h102.4a3.72,3.72,0,0,0,3.938-3.938V433.23A3.946,3.946,0,0,0,214.449,429.292Zm0,31.508h-102.4a3.72,3.72,0,0,0-3.938,3.938v11.815a3.72,3.72,0,0,0,3.938,3.938h102.4a3.72,3.72,0,0,0,3.938-3.938V464.738A3.945,3.945,0,0,0,214.449,460.8Z"/>
      <path id="Path_7" data-name="Path 7" class="cls-7" d="M427.126,392.665V499c37.415-8.665,63.015-26.782,63.015-48.049V344.615C490.142,365.489,464.542,384,427.126,392.665ZM76.6,395.028c-36.628-6.7-63.015-23.631-63.015-43.323V458.043c0,19.692,26.388,36.628,63.015,43.323Zm0-117.76c-36.628-6.3-63.015-23.237-63.015-43.717V339.89c0,19.692,26.388,36.628,63.015,43.323Zm413.539-50.806c0,20.48-25.6,38.6-63.015,47.262V380.85c37.415-8.665,63.015-26.782,63.015-48.049V226.462ZM76.6,129.969H13.588v91.766c0,20.48,26.388,37.415,63.015,43.717Zm350.523-11.815V261.908c37.415-8.665,63.015-26.782,63.015-47.262V118.154Z"/>
      <path id="Path_8" data-name="Path 8" class="cls-8" d="M399.557,58.683C392.862,25.994,336.542,0,266.831,0c-53.957,0-100.037,14.178-121.3,36.234a159.774,159.774,0,0,0-20.086-1.575c-37.022,0-66.954,16.148-66.954,33.871,0,3.545.788,9.058,3.151,12.209-28.751,8.271-49.281,19.955-49.281,37.284,0,2.807.566,9.309,1.626,12.223,7.912,21.79,49.108,35.563,96.886,35.563H379.077c61.834,0,111.852-24.025,111.852-53.957C490.142,85.071,451.151,63.409,399.557,58.683Z"/>
      <path id="Path_9" data-name="Path 9" class="cls-9" d="M249.9,47.262c-37.022,0-66.954,13.391-66.954,33.477s29.932,33.477,66.954,33.477,66.954-14.966,66.954-33.477S286.917,47.262,249.9,47.262Zm33.083,25.993-38.6,20.086a14.381,14.381,0,0,1-5.908,1.182,12.143,12.143,0,0,1-6.7-.788l-15.36-7.877c-2.757-1.575-2.757-3.938,0-5.12a11.687,11.687,0,0,1,10.24,0l11.422,5.908,35.052-18.117a11.687,11.687,0,0,1,10.24,0C285.735,69.711,285.735,72.074,282.978,73.255Z"/>
    </g>
  </g>
</svg>
