<svg xmlns="http://www.w3.org/2000/svg" viewBox="0 0 387.412 500">
  <defs>
    <style>
      .cls-1 {
        fill: #79736e;
      }

      .cls-2 {
        fill: #4e484a;
      }

      .cls-3 {
        fill: #292929;
      }

      .cls-4 {
        fill: #bcb9b3;
      }
    </style>
  </defs>
  <g id="Group_12" data-name="Group 12" transform="translate(-1622.142 -158.903)">
    <g id="Group_11" data-name="Group 11" transform="translate(1622.142 158.903)">
      <path id="Path_25" data-name="Path 25" class="cls-1" d="M1887.823,372.977,1876.7,384.122l.436.429-50.755,50.726c-91.352,81-193.145,9.482-203.326-62.117,34.038,40.858,71.264,45.264,117.05-.622l11.117-11.151-.431-.429,50.751-50.723c91.356-81.005,193.149-9.482,203.324,62.113-34.032-40.857-71.258-45.268-117.045.627" transform="translate(-1621.41 -66.334)"/>
      <path id="Path_26" data-name="Path 26" class="cls-2" d="M1740.446,222.079l-83.319,85.11c-31.7,36.993-39.458,75.257-32.768,108.554,17.218,20.442,35.256,31.555,54.811,31.555a52.344,52.344,0,0,0,5.492-.294c.632-13.378,6.19-27.147,18.69-39.619l111.331-111.062ZM1674.4,491.847c13.74,9.808,29.061,16.481,44.468,19.049a120.344,120.344,0,0,1-44.468-19.049" transform="translate(-1622.142 -108.236)"/>
      <path id="Path_27" data-name="Path 27" class="cls-3" d="M1623.373,329.551c6.352,31.62,25.741,58.763,50.038,76.1a120.346,120.346,0,0,0,44.468,19.049,84.81,84.81,0,0,0,13.279,1.18c-25.471-6.936-48.9-35.02-47.481-65.072a52.817,52.817,0,0,1-5.493.292c-19.555,0-37.593-11.111-54.811-31.553" transform="translate(-1621.155 -22.044)"/>
      <rect id="Rectangle_5" data-name="Rectangle 5" class="cls-2" width="80.573" height="80.573" transform="translate(61.287 56.974) rotate(-45)"/>
      <path id="Path_28" data-name="Path 28" class="cls-4" d="M1837.548,277.572c43.237,14.412,75.8,53.281,81.326,92.174-17.387-20.872-35.605-32.234-55.374-32.234-1.043,0-2.1.034-3.15.1-.348,13.755-5.864,27.978-18.737,40.819L1730.282,489.488l74.242,74.242,83.319-85.108c74.6-87.074,16.618-181.122-50.3-201.05" transform="translate(-1535.415 -63.731)"/>
      <path id="Path_29" data-name="Path 29" class="cls-2" d="M1776.088,275.443c25.136,6.848,48.279,34.274,47.524,63.872,1.053-.065,2.107-.1,3.15-.1,19.766,0,37.99,11.362,55.377,32.234-5.53-38.887-38.089-77.756-81.326-92.168a89.482,89.482,0,0,0-24.725-3.838" transform="translate(-1498.679 -65.438)"/>
    </g>
  </g>
</svg>
