<svg xmlns="http://www.w3.org/2000/svg" viewBox="0 0 707.584 707.584">
  <defs>
    <style>
      .cls-1 {
        fill: #fc0;
      }

      .cls-2 {
        fill: none;
      }

      .cls-3 {
        fill: #731730;
      }

      .cls-4 {
        fill: rgba(255,128,0,0.2);
      }

      .cls-5 {
        fill: rgba(255,128,0,0.3);
      }

      .cls-6 {
        fill: rgba(255,128,0,0.4);
      }

      .cls-7 {
        fill: rgba(255,128,0,0.5);
      }

      .cls-8 {
        fill: rgba(255,128,0,0.6);
      }

      .cls-9 {
        fill: #ff8000;
      }
    </style>
  </defs>
  <g id="Group_17" data-name="Group 17" transform="translate(-454 -247)">
    <g id="Group_16" data-name="Group 16" transform="translate(454 247)">
      <rect id="Rectangle_5" data-name="Rectangle 5" class="cls-1" width="707.584" height="707.584"/>
    </g>
    <path id="Path_7" data-name="Path 7" class="cls-2" d="M-883.316,4162.45" transform="translate(1883.38 -3289.645)"/>
    <path id="Path_27" data-name="Path 27" class="cls-3" d="M38.766-118.853H92.16v-59.114h18.306c72.081,0,115.94-37.376,115.94-99.922s-43.478-100.3-115.94-100.3h-71.7ZM92.16-224.878V-331.284H108.94c42.715,0,62.547,17.544,62.547,53.394,0,35.469-19.069,53.012-62.547,53.012ZM319.845-115.421c24.79,0,41.952-9.916,51.105-27.078l-1.144,23.646h51.487V-394.212H369.806V-258.44c-10.3-16.018-24.79-26.315-50.724-26.315-39.282,0-72.844,34.324-72.844,84.286S280.181-115.421,319.845-115.421Zm14.874-45c-21.739,0-35.469-14.493-35.469-40.045,0-24.027,13.73-38.9,35.469-38.9,22.12,0,36.613,14.874,36.613,38.9C371.332-174.917,356.839-160.424,334.719-160.424Z" transform="translate(674.914 1002.825)"/>
    <path id="Intersection_8" data-name="Intersection 8" class="cls-4" d="M.026,229.64C.09,170.91.026,1.692.026,0H71.708c17.89,0,34.266,2.313,48.674,6.875,14.192,4.494,26.456,11.16,36.449,19.815A85.175,85.175,0,0,1,179.7,58.23q.866,2.051,1.638,4.162A396.15,396.15,0,0,0,132.5,94.013c-1.049-14.96-6-26.078-15.04-33.865C107.109,51.233,91.644,46.9,70.183,46.9H53.406V153.28H70.183q1.785,0,3.518-.039a185.87,185.87,0,0,0-22.753,42.265C42.969,228.116,20.794,250.444,0,259.2,0,251.669.012,242.014.026,229.64Z" transform="translate(713.648 624.751)"/>
    <path id="Intersection_7" data-name="Intersection 7" class="cls-5" d="M0,0H71.683c17.889,0,34.266,2.313,48.674,6.875a108.381,108.381,0,0,1,26.367,12.252,367.088,367.088,0,0,0-30.035,40.392C106.344,51.029,91.108,46.9,70.158,46.9H53.381V153.28H66.976C49.324,182.706,28.96,205.057,0,215.786Z" transform="translate(713.674 624.751)"/>
    <path id="Intersection_6" data-name="Intersection 6" class="cls-6" d="M0,170.281V0H71.683c17.584,0,33.707,2.235,47.935,6.644A356.157,356.157,0,0,1,106.808,53.4c-9.464-4.361-21.578-6.5-36.65-6.5H53.381V149.4c-13.3,13.37-28.15,21.785-44.213,21.788A46.9,46.9,0,0,1,0,170.281Z" transform="translate(713.673 624.751)"/>
    <path id="Intersection_5" data-name="Intersection 5" class="cls-7" d="M0,132.082V0H71.683a170.755,170.755,0,0,1,39.1,4.243c-4.388,12.833-10.27,28.651-17.44,44.806A112.279,112.279,0,0,0,70.158,46.9H53.381V114.72C41.687,127.2,28.79,135.232,14.958,135.235A38.1,38.1,0,0,1,0,132.082Z" transform="translate(713.674 624.751)"/>
    <path id="Intersection_4" data-name="Intersection 4" class="cls-8" d="M0,0H71.683A179.479,179.479,0,0,1,101.6,2.39,265.664,265.664,0,0,1,64.208,46.9H53.381v9.736A246.007,246.007,0,0,1,0,91.2Z" transform="translate(713.674 624.751)"/>
    <path id="Intersection_3" data-name="Intersection 3" class="cls-9" d="M0,0H71.683q5.762,0,11.309.319A177.525,177.525,0,0,1,0,51.16Z" transform="translate(713.674 624.751)"/>
  </g>
</svg>
